<svg xmlns="http://www.w3.org/2000/svg" viewBox="0 0 512 512">
  <title>ForgePy</title>
  <defs>
    <linearGradient id="ag" x1="256" y1="115" x2="256" y2="444" gradientUnits="userSpaceOnUse">
      <stop offset="0%"   stop-color="#4ADE80"/>
      <stop offset="55%"  stop-color="#16A34A"/>
      <stop offset="100%" stop-color="#166534"/>
    </linearGradient>
    <linearGradient id="fg" x1="271" y1="115" x2="271" y2="263" gradientUnits="userSpaceOnUse">
      <stop offset="0%"   stop-color="#F0FDF4"/>
      <stop offset="100%" stop-color="#86EFAC"/>
    </linearGradient>
    <clipPath id="tableClip">
      <rect x="128.688" y="115.594" width="285" height="147.75"/>
    </clipPath>
  </defs>

  <!-- Anvil path from game-icons.net (CC Attribution) -->
  <path
    fill="url(#ag)"
    d="M128.688 115.594v147.75h285v-147.75h-285zm-111.844 20.47c17.374 47.14 54.372 80.413 94.906 93.81v-93.81H16.844zm414.375 12.31v88.657c21.457-9.083 42.92-25.257 64.374-47.374-21.52-22.562-42.633-35.173-64.375-41.28zm-226.25 132.47c-12.15 38.536-33.897 71.5-60.595 100.47l257.844-.002c-28.705-29.016-49.952-62.054-61.5-100.468H204.97zM101.843 400v43.78h337.562V400H101.844z"
  />

  <!-- Flame from svgrepo.com/show/112303, scaled to fit the table rectangle -->
  <g clip-path="url(#tableClip)">
    <path
      fill="url(#fg)"
      opacity="0.9"
      transform="translate(217.4 146) scale(0.18)"
      d="M216.02,611.195c5.978,3.178,12.284-3.704,8.624-9.4c-19.866-30.919-38.678-82.947-8.706-149.952c49.982-111.737,80.396-169.609,80.396-169.609s16.177,67.536,60.029,127.585c42.205,57.793,65.306,130.478,28.064,191.029c-3.495,5.683,2.668,12.388,8.607,9.349c46.1-23.582,97.806-70.885,103.64-165.017c2.151-28.764-1.075-69.034-17.206-119.851c-20.741-64.406-46.239-94.459-60.992-107.365c-4.413-3.861-11.276-0.439-10.914,5.413c4.299,69.494-21.845,87.129-36.726,47.386c-5.943-15.874-9.409-43.33-9.409-76.766c0-55.665-16.15-112.967-51.755-159.531c-9.259-12.109-20.093-23.424-32.523-33.073c-4.5-3.494-11.023,0.018-10.611,5.7c2.734,37.736,0.257,145.885-94.624,275.089c-86.029,119.851-52.693,211.896-40.864,236.826C153.666,566.767,185.212,594.814,216.02,611.195z"
    />
  </g>
</svg>
